<?xml version="1.0" encoding="UTF-8"?>
<svg width="72px" height="72px" viewBox="0 0 72 72" version="1.1" xmlns="http://www.w3.org/2000/svg"
    xmlns:xlink="http://www.w3.org/1999/xlink">
    <title>切片</title>
    <defs>
        <linearGradient x1="56.0491493%" y1="85.3840605%" x2="45.9646432%" y2="36.2427762%" id="linearGradient-1">
            <stop stop-color="#3667EF" stop-opacity="0.572054776" offset="0%"></stop>
            <stop stop-color="#3591FD" stop-opacity="0.551006611" offset="100%"></stop>
        </linearGradient>
        <linearGradient x1="100%" y1="85.3840605%" x2="16.6452539%" y2="36.2427762%" id="linearGradient-2">
            <stop stop-color="#3667EF" stop-opacity="0.572054776" offset="0%"></stop>
            <stop stop-color="#3591FD" stop-opacity="0.551006611" offset="100%"></stop>
        </linearGradient>
        <linearGradient x1="18.906441%" y1="44.4444444%" x2="80.4040186%" y2="55.5555556%" id="linearGradient-3">
            <stop stop-color="#3591FD" offset="0%"></stop>
            <stop stop-color="#3667EF" offset="100%"></stop>
        </linearGradient>
    </defs>
    <g id="首页" stroke="none" stroke-width="1" fill="none" fill-rule="evenodd">
        <g id="云仓" transform="translate(-76.000000, -577.000000)">
            <g id="组件/图标+文字备份-2" transform="translate(56.000000, 577.000000)">
                <g id="组件/图标/业务图标/扫瞄备份-4" transform="translate(20.000000, 0.000000)">
                    <rect id="点击热区" fill="#D8D8D8" opacity="0" x="0" y="0" width="72" height="72"></rect>
                    <path
                        d="M24.75,11.25 C25.9926407,11.25 27,12.2573593 27,13.5 L27,60.75 C27,61.9926407 25.9926407,63 24.75,63 L11.25,63 C10.0073593,63 9,61.9926407 9,60.75 L9,13.5 C9,12.2573593 10.0073593,11.25 11.25,11.25 L24.75,11.25 Z M18,50.625 C16.136039,50.625 14.625,52.136039 14.625,54 C14.625,55.863961 16.136039,57.375 18,57.375 C19.863961,57.375 21.375,55.863961 21.375,54 C21.375,52.136039 19.863961,50.625 18,50.625 Z"
                        id="形状结合" fill="url(#linearGradient-1)" fill-rule="nonzero"></path>
                    <path
                        d="M45.5927759,16.2159903 L55.1387175,25.7619318 C56.0173971,26.6406115 56.0173971,28.0652327 55.1387175,28.9439123 L23.3189123,60.7637175 C22.4402327,61.6423971 21.0156115,61.6423971 20.1369318,60.7637175 L16.273164,56.9003739 C16.7783669,57.2018119 17.3689583,57.375 18,57.375 C19.863961,57.375 21.375,55.863961 21.375,54 C21.375,52.136039 19.863961,50.625 18,50.625 C16.136039,50.625 14.625,52.136039 14.625,54 C14.625,54.6310417 14.7981881,55.2216331 15.0996261,55.726836 L10.5909903,51.2177759 C9.7123106,50.3390963 9.7123106,48.9144751 10.5909903,48.0357954 L42.4107954,16.2159903 C43.2894751,15.3373106 44.7140963,15.3373106 45.5927759,16.2159903 Z"
                        id="形状结合" fill="url(#linearGradient-2)" fill-rule="nonzero"></path>
                    <path
                        d="M60.75,45 C61.9926407,45 63,46.0073593 63,47.25 L63,60.75 C63,61.9926407 61.9926407,63 60.75,63 L11.25,63 C10.0073593,63 9,61.9926407 9,60.75 L9,47.25 C9,46.0073593 10.0073593,45 11.25,45 L60.75,45 Z M18,50.625 C16.136039,50.625 14.625,52.136039 14.625,54 C14.625,55.863961 16.136039,57.375 18,57.375 C19.863961,57.375 21.375,55.863961 21.375,54 C21.375,52.136039 19.863961,50.625 18,50.625 Z"
                        id="形状结合" fill="url(#linearGradient-3)" fill-rule="nonzero" opacity="0.949999988"></path>
                </g>
            </g>
        </g>
    </g>
</svg>
