<?xml version="1.0" encoding="UTF-8"?>
<svg width="40px" height="40px" viewBox="0 0 40 40" version="1.1" xmlns="http://www.w3.org/2000/svg" xmlns:xlink="http://www.w3.org/1999/xlink">
    <title>切片</title>
    <g id="码单确认" stroke="none" stroke-width="1" fill="none" fill-rule="evenodd" opacity="0.800000012">
        <g id="大货-码单详情-按颜色" transform="translate(-325.000000, -595.000000)">
            <g id="组件/图标/功能类/输入备份-9" transform="translate(325.000000, 595.000000)">
                <rect id="点击热区" fill="#333333" opacity="0" x="0" y="0" width="40" height="40"></rect>
                <rect id="矩形备份" fill="#333333" transform="translate(20.000000, 33.750000) rotate(-270.000000) translate(-20.000000, -33.750000) " x="18.75" y="18.75" width="2.5" height="30" rx="1.25"></rect>
                <path d="M20,4.375 C20.345178,4.375 20.657678,4.51491102 20.8838835,4.74111652 C21.110089,4.96732203 21.25,5.27982203 21.25,5.625 L21.25,29.4629743 C21.25,29.7856652 21.1252079,30.095854 20.9017342,30.3286391 L18.7507098,32.5692895 L16.5982658,30.3286391 C16.3747921,30.095854 16.25,29.7856652 16.25,29.4629743 L16.25,5.625 C16.25,5.27982203 16.389911,4.96732203 16.6161165,4.74111652 C16.842322,4.51491102 17.154822,4.375 17.5,4.375 Z" id="矩形" stroke="#333333" stroke-width="2.5" transform="translate(18.750000, 18.750000) rotate(-315.000000) translate(-18.750000, -18.750000) "></path>
                <line x1="22.7427805" y1="11.2414586" x2="26.7283983" y2="15.1637634" id="路径-2" stroke="#333333" stroke-width="2.5"></line>
            </g>
        </g>
    </g>
</svg>