<?xml version="1.0" standalone="no"?>
<!DOCTYPE svg PUBLIC "-//W3C//DTD SVG 1.1//EN" "http://www.w3.org/Graphics/SVG/1.1/DTD/svg11.dtd">
<svg
  t="1670988857222"
  class="icon"
  viewBox="0 0 1024 1024"
  version="1.1"
  xmlns="http://www.w3.org/2000/svg"
  p-id="2624"
  xmlns:xlink="http://www.w3.org/1999/xlink"
  width="200"
  height="200"
>
  <path
    d="M512 512m-512 0a512 512 0 1 0 1024 0 512 512 0 1 0-1024 0Z"
    fill="#00C760"
    p-id="2625"
  ></path>
  <path
    d="M663.058286 282.002286c14.171429 0 27.282286 7.497143 34.468571 19.693714l105.124572 178.505143c11.648 11.721143 11.702857 27.538286 3.968 43.904-3.309714 7.003429-10.349714 11.465143-18.102858 11.465143h-34.121142l0.018285 193.005714c0 23.277714-18.285714 42.276571-41.289143 43.373714l-2.102857 0.054857H313.197714a43.410286 43.410286 0 0 1-43.392-43.428571V535.552h-34.048c-7.204571 0-13.805714-3.858286-17.353143-10.057143l-0.768-1.462857c-7.478857-15.981714-8.301714-30.811429 2.066286-43.428571l1.792-1.956572 103.588572-176.859428a39.990857 39.990857 0 0 1 34.523428-19.785143H663.04z m-131.053715 299.995428h-40.009142a29.988571 29.988571 0 0 0-29.988572 29.988572v130.011428h99.986286v-130.011428a29.988571 29.988571 0 0 0-29.988572-29.988572z"
    fill="#FFFFFF"
    p-id="2626"
  ></path>
</svg>
